<?xml version="1.0" standalone="no"?>
<!DOCTYPE svg PUBLIC "-//W3C//DTD SVG 20010904//EN"
 "http://www.w3.org/TR/2001/REC-SVG-20010904/DTD/svg10.dtd">
<svg version="1.0" xmlns="http://www.w3.org/2000/svg"
 width="2048.000000pt" height="278.000000pt" viewBox="0 0 2048.000000 278.000000"
 preserveAspectRatio="xMidYMid meet">

<g transform="translate(0.000000,278.000000) scale(0.100000,-0.100000)"
fill="#000000" stroke="none">
<path d="M14955 2764 c-19 -14 -19 -15 4 -107 46 -183 127 -314 230 -375 40
-23 59 -27 146 -30 56 -2 152 3 220 12 65 9 125 16 132 16 11 0 13 -128 13
-662 l0 -663 -132 0 c-120 0 -141 -3 -213 -28 -158 -56 -336 -189 -451 -339
-44 -57 -45 -60 -28 -79 15 -17 19 -17 33 -5 29 25 119 65 208 93 79 24 104
26 233 26 175 0 285 -21 504 -94 82 -27 153 -49 158 -49 5 0 37 24 71 53 34
28 134 104 221 167 245 177 324 266 361 405 21 84 22 1075 1 1176 -39 184
-177 311 -386 355 -114 24 -389 14 -650 -25 -231 -34 -341 -38 -420 -15 -73
21 -149 72 -190 125 -18 24 -36 47 -39 51 -3 4 -15 0 -26 -8z m1160 -479 c119
-31 167 -94 172 -224 l4 -86 -262 -180 c-144 -99 -266 -181 -270 -183 -5 -2
-9 149 -9 337 l0 340 33 4 c88 11 276 6 332 -8z m163 -591 c-7 -7 -128 -92
-268 -189 l-255 -176 -3 102 c-1 56 1 106 6 111 5 5 126 90 268 188 l259 179
3 -101 c2 -73 -1 -105 -10 -114z m8 -911 c-2 -2 -49 14 -105 37 -127 50 -312
107 -380 116 l-51 7 2 161 3 161 265 183 265 183 3 -422 c1 -232 0 -424 -2
-426z"/>
<path d="M430 2671 c-149 -48 -287 -192 -346 -360 -36 -102 -15 -119 56 -46
76 77 197 106 365 85 50 -6 227 -44 395 -85 168 -41 328 -77 355 -80 28 -3 62
-9 78 -11 l27 -6 0 -668 c0 -646 -1 -670 -19 -679 -37 -20 -196 -41 -311 -41
-210 0 -343 50 -471 179 -83 83 -135 173 -166 291 -28 101 -25 385 5 502 40
160 103 273 224 403 69 74 70 75 45 86 -20 9 -34 6 -88 -21 -183 -92 -364
-248 -453 -393 -136 -219 -164 -507 -75 -782 97 -304 342 -505 684 -560 104
-17 292 -19 383 -5 173 28 304 94 423 210 117 114 239 318 225 374 l-7 27 -67
-59 c-98 -85 -139 -115 -214 -157 l-68 -37 0 664 0 664 59 12 c124 26 217 127
306 334 31 72 36 90 26 102 -11 14 -17 13 -45 -9 -53 -40 -138 -74 -219 -87
-95 -14 -171 -4 -347 48 -406 119 -622 149 -760 105z"/>
<path d="M5359 2475 c-282 -199 -411 -309 -447 -380 -26 -53 -42 -140 -42
-235 l0 -77 -61 -7 c-109 -11 -195 -67 -220 -144 -15 -45 -7 -168 14 -208 19
-36 71 -94 85 -94 5 0 17 20 26 44 23 59 47 78 106 84 l50 5 0 -155 c0 -180
-9 -217 -71 -291 -40 -47 -46 -77 -14 -77 20 0 181 70 241 105 115 68 175 155
194 282 5 37 10 257 10 488 0 466 0 465 69 529 l31 30 0 -740 c0 -488 -4 -752
-11 -777 -5 -21 -23 -52 -39 -70 -25 -29 -34 -32 -82 -31 -42 0 -75 10 -158
49 -99 46 -110 49 -190 49 -97 1 -149 -17 -215 -75 -73 -64 -159 -229 -142
-273 6 -15 13 -13 49 19 52 44 132 69 202 63 30 -3 93 -22 151 -48 115 -49
210 -62 292 -39 67 18 131 85 163 169 24 64 25 70 28 428 l3 362 130 0 129 0
0 -308 0 -309 -66 -77 c-37 -42 -63 -80 -60 -84 4 -3 53 -14 110 -24 129 -21
222 -58 303 -119 l63 -48 115 150 c64 82 118 155 121 162 2 7 -9 23 -26 35
l-30 23 0 299 0 300 125 0 125 0 0 -222 c0 -412 19 -511 112 -613 55 -60 171
-126 228 -128 31 -2 37 5 156 173 68 96 124 178 124 181 0 16 -33 18 -53 4
-12 -8 -37 -15 -55 -15 -44 0 -105 58 -121 115 -7 27 -11 245 -11 685 l0 645
65 75 c68 79 77 100 46 100 -59 0 -301 113 -399 187 l-32 24 -33 -22 c-17 -13
-85 -63 -149 -111 -64 -48 -120 -88 -123 -88 -3 0 -5 34 -5 75 0 73 -1 75 -25
75 -25 0 -25 0 -25 -93 0 -80 -3 -97 -19 -111 -18 -16 -22 -16 -90 19 -94 47
-189 108 -281 181 -41 33 -80 63 -86 66 -6 4 -134 -80 -285 -187z m91 -123
c32 -27 86 -64 119 -83 l60 -34 1 -227 0 -228 -125 0 -125 0 0 310 c0 171 2
310 5 310 3 0 32 -22 65 -48z m817 2 c27 -20 72 -48 101 -62 l52 -26 0 -243 0
-243 -125 0 -125 0 0 287 c0 252 2 289 17 305 22 24 26 24 80 -18z m-147 -750
c0 -678 -1 -716 -17 -709 -10 4 -34 13 -53 20 l-35 13 -2 659 -3 658 52 38
c29 20 53 37 55 37 2 0 3 -322 3 -716z"/>
<path d="M2265 2618 c-11 -6 -74 -46 -140 -88 -133 -86 -206 -125 -279 -149
l-48 -17 41 -48 41 -47 0 -741 0 -742 -41 -48 c-23 -27 -40 -51 -38 -52 2 -2
51 -27 109 -56 58 -29 136 -72 174 -97 37 -24 72 -43 76 -41 12 5 200 239 200
249 0 10 -92 71 -122 82 -17 6 -18 34 -18 401 l0 395 67 54 67 54 58 -43 c33
-24 84 -57 114 -75 l55 -31 -3 -467 c-4 -507 -5 -520 -62 -581 -64 -68 -83
-148 -51 -210 8 -16 46 -48 89 -75 122 -75 126 -133 14 -188 -135 -68 35 -78
181 -11 111 50 164 130 141 214 -15 55 -49 78 -187 125 -64 22 -121 48 -127
57 -16 26 17 55 111 99 91 42 164 102 196 164 21 39 22 53 27 487 l5 447 38
38 c20 22 37 42 37 46 0 3 -49 31 -109 62 -60 31 -156 87 -215 125 l-105 70
-168 -133 -168 -134 -3 330 c-3 362 1 397 57 506 36 71 31 95 -14 69z"/>
<path d="M9031 2580 c-46 -28 -102 -63 -124 -79 -66 -45 -188 -108 -234 -122
-24 -7 -43 -14 -43 -17 0 -2 18 -26 40 -52 l40 -48 0 -737 0 -737 -40 -45
c-22 -25 -40 -49 -40 -53 0 -3 46 -29 103 -58 56 -28 135 -72 175 -98 86 -55
65 -66 196 96 l85 105 -21 22 c-11 12 -45 34 -74 50 l-54 28 0 390 0 390 71
57 70 56 62 -46 c34 -26 83 -58 110 -72 l47 -25 0 -461 c0 -518 -1 -527 -70
-611 -77 -92 -74 -179 7 -238 24 -16 62 -44 85 -60 33 -23 44 -38 46 -62 5
-48 -12 -69 -78 -100 -49 -22 -57 -29 -47 -41 26 -32 201 5 283 61 66 44 94
88 94 148 0 81 -46 121 -189 164 -116 35 -132 44 -129 74 2 21 20 34 101 76
123 64 160 93 197 158 l30 52 0 437 0 438 33 37 c66 76 72 65 -62 133 -66 34
-164 90 -217 126 -61 41 -101 61 -108 56 -6 -5 -78 -63 -161 -128 -82 -66
-156 -124 -163 -128 -11 -7 -13 51 -9 335 4 367 5 371 59 492 21 44 28 71 22
77 -7 7 -39 -7 -93 -40z"/>
<path d="M19079 2602 c-24 -15 -78 -50 -119 -78 -81 -55 -186 -110 -265 -139
-27 -10 -52 -20 -54 -21 -2 -2 15 -24 38 -50 l41 -47 0 -739 0 -739 -42 -50
c-22 -27 -39 -51 -37 -53 2 -2 51 -27 108 -55 56 -29 134 -73 171 -98 38 -25
73 -42 78 -39 5 3 54 60 108 127 l98 121 -29 24 c-16 13 -51 34 -78 46 l-48
23 3 770 c4 846 2 815 67 948 35 73 24 87 -40 49z"/>
<path d="M7123 2388 l-91 -113 24 -26 c57 -60 202 -107 289 -93 82 13 151 67
195 154 32 63 29 66 -55 73 -83 6 -162 37 -223 87 -20 16 -39 30 -42 30 -3 0
-47 -51 -97 -112z"/>
<path d="M10012 2388 c-49 -61 -88 -116 -86 -122 7 -18 96 -74 144 -91 71 -26
175 -24 233 4 66 32 157 150 144 185 -3 8 -33 15 -74 19 -85 7 -142 28 -210
78 -29 22 -54 39 -56 39 -3 0 -45 -50 -95 -112z"/>
<path d="M18071 2388 c-50 -62 -91 -116 -91 -119 0 -12 105 -79 150 -95 25 -8
77 -16 115 -17 84 -2 149 25 195 81 38 46 74 118 65 132 -3 5 -28 10 -55 10
-70 0 -168 34 -228 80 -29 22 -54 40 -56 40 -2 0 -45 -51 -95 -112z"/>
<path d="M15522 2184 c-105 -31 -204 -80 -264 -133 -50 -44 -108 -146 -108
-190 0 -14 -3 -43 -6 -63 -6 -36 -9 -38 -43 -38 -104 0 -205 -63 -237 -146
-20 -54 -15 -153 11 -204 36 -72 105 -119 105 -72 0 23 35 79 57 90 10 5 37
12 61 16 l42 6 0 -189 c0 -204 -7 -244 -56 -308 -20 -27 -23 -37 -14 -48 10
-12 24 -8 93 27 161 80 276 179 320 275 21 46 22 64 28 423 6 417 8 430 75
508 59 70 47 78 -64 46z"/>
<path d="M937 2020 c-237 -120 -247 -126 -242 -150 10 -41 21 -44 71 -16 25
14 48 26 50 26 10 0 3 -778 -7 -815 -6 -23 -28 -58 -50 -80 -37 -39 -38 -42
-23 -63 l16 -23 96 52 c205 109 287 192 326 329 14 48 16 115 14 460 l-3 405
-248 -125z"/>
<path d="M3635 1919 c-60 -38 -188 -108 -282 -156 l-173 -86 0 -444 0 -444
-42 -50 c-22 -27 -39 -51 -36 -54 3 -3 49 -12 102 -20 169 -25 330 -78 454
-148 31 -17 57 -26 62 -21 18 19 290 369 290 374 -1 3 -12 13 -25 23 l-24 17
-52 -65 c-28 -36 -52 -65 -54 -65 -1 0 -35 15 -76 34 -66 30 -162 62 -241 80
l-28 6 0 139 0 138 268 157 c147 86 273 160 281 165 10 7 -24 64 -149 250 -89
132 -163 241 -164 240 0 0 -50 -32 -111 -70z m-2 -327 c65 -100 117 -184 117
-186 0 -4 -211 -126 -232 -134 -4 -2 -8 112 -8 254 0 141 2 255 3 253 2 -2 56
-86 120 -187z"/>
<path d="M7114 1873 c-48 -59 -94 -116 -103 -126 -15 -18 -14 -21 13 -42 16
-13 46 -31 67 -41 l38 -17 3 -451 3 -451 31 -65 c17 -36 49 -82 70 -103 38
-38 121 -87 146 -87 15 0 237 270 235 284 -1 5 -23 10 -49 10 -38 1 -53 7 -75
29 l-28 27 -3 425 -3 425 41 44 c22 24 40 47 40 52 0 5 -39 29 -87 53 -77 38
-159 84 -229 128 -21 13 -27 8 -110 -94z"/>
<path d="M8155 1923 c-83 -64 -198 -135 -312 -192 l-83 -41 0 -449 0 -449 -45
-54 -44 -53 27 -7 c15 -3 74 -14 132 -23 133 -22 257 -62 371 -121 l89 -46 23
28 c12 15 79 100 149 189 l127 160 -25 23 -26 22 -50 -65 c-28 -36 -51 -65
-53 -65 -1 0 -31 13 -66 29 -66 29 -162 62 -236 81 l-43 11 0 409 0 410 41
-41 c56 -56 110 -79 188 -79 109 0 189 56 240 171 33 71 30 75 -44 83 -85 9
-180 43 -241 88 l-49 35 -70 -54z"/>
<path d="M9994 1862 c-53 -65 -98 -123 -101 -130 -6 -15 15 -34 79 -67 l47
-25 3 -447 c3 -322 7 -458 16 -485 21 -61 75 -130 134 -170 99 -67 96 -68 226
91 61 77 112 144 112 149 0 7 -14 9 -34 5 -42 -7 -99 19 -115 53 -8 17 -11
151 -11 440 l0 414 40 44 c22 24 40 47 40 52 0 5 -30 23 -66 38 -37 16 -114
57 -171 92 l-103 62 -96 -116z"/>
<path d="M11045 1871 c-160 -108 -364 -231 -384 -231 -8 0 -11 -133 -11 -446
l0 -446 -40 -45 c-22 -25 -40 -49 -40 -54 0 -4 33 -13 73 -19 101 -17 210 -54
295 -101 l72 -40 83 65 c45 36 118 94 162 129 44 36 83 63 88 60 4 -2 7 -16 7
-30 0 -60 24 -106 92 -175 74 -76 88 -111 68 -174 -7 -20 -28 -54 -47 -75
l-35 -39 -32 19 c-17 11 -74 35 -126 53 -90 31 -103 32 -240 33 -138 0 -148
-1 -200 -27 -97 -48 -166 -120 -235 -245 -24 -42 -27 -54 -16 -66 11 -14 20
-12 76 19 72 40 171 64 265 64 99 0 166 -22 272 -88 26 -16 28 -16 50 4 13 11
104 90 203 176 237 204 300 271 321 345 22 75 14 124 -29 176 -65 80 -62 54
-65 510 l-3 418 47 54 c32 38 42 56 33 60 -221 77 -325 117 -419 163 -63 31
-117 58 -120 59 -3 1 -77 -46 -165 -106z m38 -160 c75 -46 120 -67 197 -90
l55 -17 3 -384 2 -385 -22 -17 c-13 -10 -39 -29 -59 -43 l-36 -25 -66 34 c-36
19 -91 42 -121 52 l-56 18 0 436 c0 429 2 460 31 460 4 0 36 -18 72 -39z"/>
<path d="M12470 1934 c-58 -59 -109 -85 -170 -86 -58 0 -85 8 -124 35 l-29 20
-113 -116 c-63 -64 -114 -121 -114 -126 0 -6 68 -65 150 -132 83 -67 147 -125
143 -129 -4 -4 -30 -15 -56 -25 -68 -24 -188 -107 -236 -162 -149 -169 -141
-443 19 -602 46 -46 175 -121 207 -121 9 0 93 49 189 110 95 60 177 110 182
110 5 0 17 -19 28 -41 25 -58 95 -126 157 -154 28 -14 57 -25 63 -25 12 0 244
274 244 288 0 4 -25 8 -56 8 -49 -1 -59 2 -80 27 l-24 28 0 401 0 400 41 49
c39 46 43 69 14 69 -26 0 -233 110 -309 165 -43 30 -78 55 -80 55 -1 0 -22
-21 -46 -46z m-95 -252 c22 -17 64 -43 93 -57 l52 -26 0 -175 c0 -97 -4 -174
-8 -172 -5 2 -113 88 -241 193 l-231 190 77 11 c73 10 131 32 178 67 11 9 24
12 30 8 5 -4 28 -22 50 -39z m26 -419 l119 -98 -2 -190 -3 -190 -69 -39 -69
-40 -73 38 c-134 69 -180 153 -172 319 3 77 9 103 35 157 27 58 90 140 107
140 4 0 61 -44 127 -97z"/>
<path d="M13138 1836 c-65 -80 -118 -147 -118 -150 0 -3 24 -6 53 -6 55 -1 76
-11 95 -47 9 -15 12 -140 12 -436 l0 -414 -41 -47 c-23 -26 -40 -48 -38 -50 2
-2 56 -29 119 -61 63 -31 141 -75 174 -96 32 -21 61 -39 65 -39 9 0 190 225
197 244 6 15 -63 68 -110 86 l-26 10 0 392 0 393 65 58 64 58 61 -45 c34 -25
85 -59 115 -76 l54 -31 3 -422 c3 -415 3 -423 26 -471 33 -71 67 -112 125
-151 95 -62 89 -65 221 93 64 77 116 144 116 149 0 5 -25 9 -55 9 -44 -1 -59
3 -77 22 l-23 23 -3 397 -3 398 41 46 c22 25 40 50 39 55 0 4 -48 31 -107 60
-59 28 -155 84 -214 123 l-107 71 -173 -140 -173 -139 -11 37 c-30 99 -89 168
-183 216 -28 14 -54 25 -58 25 -4 0 -61 -65 -125 -144z"/>
<path d="M17391 1934 c-96 -100 -201 -114 -304 -41 -15 10 -31 -3 -132 -108
-62 -66 -114 -123 -114 -126 -1 -4 67 -62 150 -129 83 -67 147 -126 142 -130
-4 -4 -28 -15 -53 -24 -129 -50 -253 -158 -302 -262 -103 -221 -13 -480 205
-588 41 -20 79 -36 86 -36 8 0 89 47 180 105 92 57 174 107 182 110 9 3 22
-10 39 -41 33 -64 93 -122 154 -150 28 -13 56 -24 63 -24 12 0 243 272 243
287 0 5 -25 9 -55 9 -44 -1 -59 3 -77 22 l-23 23 -3 405 -3 405 42 49 c23 28
39 53 36 56 -3 4 -40 21 -82 39 -87 38 -196 101 -272 157 -29 21 -53 38 -55
38 -2 0 -23 -21 -47 -46z m-110 -239 c21 -19 66 -48 99 -65 l60 -30 0 -176 c0
-145 -2 -174 -14 -167 -7 4 -115 91 -239 193 l-225 185 66 8 c64 7 146 38 187
71 11 8 22 16 24 16 2 0 21 -16 42 -35z m40 -431 l119 -96 0 -192 0 -191 -73
-39 -72 -39 -55 28 c-85 43 -126 81 -157 143 -26 52 -28 67 -28 167 0 98 3
116 27 167 23 49 100 148 116 148 3 0 58 -43 123 -96z"/>
<path d="M18052 1863 c-52 -64 -96 -122 -99 -129 -5 -14 68 -71 104 -80 l23
-6 0 -437 c0 -483 1 -496 63 -587 33 -51 122 -118 169 -129 24 -6 35 4 140
130 62 76 115 144 116 152 3 12 -3 14 -27 8 -17 -4 -47 -1 -66 5 -65 21 -65
21 -65 485 l0 416 42 50 c22 27 39 51 37 53 -2 1 -38 19 -79 39 -41 20 -117
61 -169 91 -51 31 -94 56 -95 56 0 0 -43 -53 -94 -117z"/>
<path d="M19310 1838 c-63 -77 -116 -144 -118 -149 -2 -5 20 -9 50 -9 65 0 94
-18 108 -68 6 -23 10 -197 10 -451 l0 -414 -47 -51 -48 -50 90 -17 c120 -23
206 -52 289 -100 39 -22 75 -38 80 -35 6 3 83 64 171 136 l160 131 8 -28 c27
-91 45 -122 108 -189 99 -105 101 -159 9 -251 l-41 -41 -72 34 c-118 55 -185
69 -337 69 -126 0 -139 -2 -194 -28 -76 -35 -179 -140 -226 -229 -27 -52 -32
-69 -22 -80 10 -12 23 -9 89 24 43 21 102 43 132 48 133 25 275 1 359 -60 23
-16 47 -30 53 -30 6 0 88 66 182 148 340 292 372 330 372 442 0 58 -4 72 -38
127 -21 33 -43 78 -48 100 -5 21 -9 227 -8 458 l0 420 40 44 c22 24 38 48 37
53 -2 5 -33 22 -68 38 -56 23 -196 103 -252 142 -9 7 -19 10 -21 8 -2 -3 -48
-60 -102 -128 -111 -139 -111 -140 -14 -181 l49 -22 0 -407 -1 -407 -59 -43
-59 -43 -65 35 c-36 19 -90 43 -120 52 l-55 17 -3 431 c-3 420 -4 432 -26 487
-30 75 -87 138 -160 177 -33 18 -64 32 -68 32 -5 -1 -61 -64 -124 -142z"/>
</g>
</svg>
