<?xml version="1.0" encoding="UTF-8" standalone="no"?>
<svg
   xmlns:dc="http://purl.org/dc/elements/1.1/"
   xmlns:cc="http://creativecommons.org/ns#"
   xmlns:rdf="http://www.w3.org/1999/02/22-rdf-syntax-ns#"
   xmlns:svg="http://www.w3.org/2000/svg"
   xmlns="http://www.w3.org/2000/svg"
   viewBox="0 0 1080 137"
   version="1.1"
   id="Layer_1">
  <metadata
     id="metadata36">
    <rdf:RDF>
      <cc:Work
         rdf:about="">
        <dc:format>image/svg+xml</dc:format>
        <dc:type
           rdf:resource="http://purl.org/dc/dcmitype/StillImage" />
      </cc:Work>
    </rdf:RDF>
  </metadata>
  <defs
     id="defs4">
    <style
       id="style2">.st3{fill:#2e2d29;font-family:SourceSansPro-Regular,&quot;Source Sans Pro&quot;;font-size:14px}.st4{fill:#8c1515}.st3{isolation:isolate}</style>
  </defs>
  <g
     id="stanford-line1-3">
    <path
       style="fill:none"
       d="M 0,0 H 1080 V 137 H 0 Z"
       id="Rectangle" />
    <g
       id="SU_units_1Ln">
      <path
         style="fill:#8c1515"
         class="st4"
         d="m 135.3,70.6 c -0.9,0.2 -1.7,0.5 -2.5,0.9 -0.7,0.3 -1,1 -1,1.8 0,0.8 0.1,0.9 0.5,1.2 0.3,0.3 0.8,0.5 1.2,0.4 0.6,0 1.3,-0.2 1.8,-0.5 z m -2.7,6 c -3.1,0 -3.3,-2.3 -3.3,-3 -0.1,-1.4 0.8,-2.6 2.2,-3 2,-0.7 2.5,-0.8 3.8,-1.3 V 69 c 0,-0.4 0,-0.9 -0.1,-1.3 -0.3,-0.9 -1.2,-1.4 -2.1,-1.3 -0.9,0 -1.7,0.4 -2.2,1.2 v 0.2 c -0.1,0 -0.7,-0.3 -0.7,-0.3 v -0.2 c 0.6,-1.5 2.2,-2.5 3.8,-2.4 1.3,0 2.5,0.4 3.2,1.4 0.4,0.9 0.6,1.9 0.5,2.9 v 4.3 c 0,0.8 0.1,1.4 0.8,1.4 0.7,0 0.3,0 0.4,-0.1 l 0.2,-0.2 0.4,0.4 v 0.2 c -0.6,0.8 -1.4,1.2 -2.3,1.3 -0.8,0.1 -1.5,-0.4 -1.7,-1.1 -0.8,0.8 -1.8,1.2 -2.9,1.2 z"
         id="Shape" />
      <path
         style="fill:#8c1515"
         class="st4"
         d="m 113.9,76.5 c -1.3,0 -2.5,-0.2 -3.7,-0.5 H 110 v -3.3 h 0.7 v 0.2 c 0,0.5 0.2,1 0.5,1.4 0.7,0.6 1.7,0.9 2.6,0.9 2.2,0 3.2,-0.8 3.2,-2.6 0,-1.8 -0.9,-2.1 -2.2,-3 h -0.2 c 0,-0.1 -1.4,-1 -1.4,-1 -1.9,-1.3 -2.8,-2.3 -2.8,-4.2 0,-1.9 0.4,-4.2 5.1,-4.2 4.7,0 2.3,0.1 3.5,0.3 h 0.2 v 3.4 h -0.6 v -0.4 c 0,-0.5 -0.2,-1 -0.6,-1.4 -0.7,-0.4 -1.6,-0.7 -2.5,-0.6 -2.5,0 -2.8,1.3 -2.8,2.3 0,1 0.7,1.8 2.2,2.8 l 1.7,1.1 c 1.5,1 2.8,1.9 2.8,4.3 0,4.1 -3.8,4.5 -5.5,4.5 z"
         id="Path" />
      <path
         style="fill:#8c1515"
         data-name="Path"
         class="st4"
         d="m 125.1,76.6 c -1.8,0 -2.7,-0.6 -3.1,-2 -0.1,-0.8 -0.2,-1.5 -0.2,-2.3 v -5.7 h -1.4 v -0.5 h 0.1 c 0.5,-0.3 0.9,-0.5 1.3,-0.8 0.8,-0.6 1.4,-1.4 1.8,-2.3 l 0.3,-0.4 h 0.5 v 2.5 h 3.8 v 1.4 h -3.8 v 5.9 c 0,1.8 0.3,2.8 2,2.8 1.7,0 1,-0.1 1.4,-0.3 h 0.2 c 0,-0.1 0.2,0.4 0.2,0.4 h -0.1 c -0.8,0.9 -1.9,1.4 -3,1.3 z"
         id="Path1" />
      <path
         style="fill:#8c1515"
         data-name="Path"
         class="st4"
         d="M 140.5,76.5 V 76 h 0.2 c 0.4,0 0.7,-0.2 1,-0.5 0.4,-0.4 0.4,-1.4 0.4,-3.3 v -3.3 c 0,-1.4 0,-2 -0.2,-2.3 -0.3,-0.3 -0.6,-0.4 -1,-0.4 h -0.3 v -0.6 h 0.4 c 0.7,0 1.3,0 2,-0.2 0.4,0 0.8,-0.2 1.2,-0.4 h 0.2 v 0.9 c 0.9,-0.7 2.1,-1.1 3.3,-1.1 2,0 3.4,1 3.8,2.7 0,0.7 0.2,1.3 0,2 v 3.3 c 0,1.9 0,2.4 0.4,2.7 0.3,0.2 0.6,0.3 0.9,0.3 h 0.2 v 0.5 h -0.6 c -0.8,0 -1.5,-0.1 -2.2,-0.1 -0.7,0 -1.6,0 -2.6,0.1 h -0.3 v -0.5 h 0.2 c 0.3,0 0.7,-0.2 0.9,-0.4 0.3,-0.6 0.5,-1.3 0.4,-2 v -5 c 0,-0.6 -0.3,-1.2 -0.7,-1.6 -0.5,-0.4 -1.1,-0.6 -1.7,-0.5 -0.7,0 -1.5,0 -2.1,0.5 v 5.9 c 0,1.9 0,2.4 0.4,2.7 0.2,0.2 0.6,0.3 0.9,0.3 h 0.3 v 0.5 h -0.6 c -0.8,0 -1.5,-0.1 -2.2,-0.1 -0.7,0 -1.6,0 -2.6,0.1 h -0.1 v 0.3 z"
         id="Path2" />
      <path
         style="fill:#8c1515"
         data-name="Path"
         class="st4"
         d="M 154.6,76.5 V 76 h 0.2 c 0.4,0 0.7,-0.2 1,-0.5 0.3,-0.4 0.4,-1.3 0.4,-3.3 v -5.6 h -1.4 V 66 h 0.2 c 0.5,-0.3 0.9,-0.5 1.3,-0.8 0,-1 0,-2 0.2,-3 0.4,-2.3 2,-3.5 4.5,-3.5 2.5,0 2,0.3 2.8,0.9 v 0.3 l -1.1,1.6 h -0.4 c -0.3,-0.9 -1,-1.5 -1.9,-1.4 -0.4,0 -0.8,0.1 -1.1,0.4 -0.5,0.5 -0.6,1.2 -0.6,2.7 v 2.2 h 2.5 v 1.4 h -2.5 v 6.3 c 0,0.8 0,1.7 0.2,2.5 0.3,0.5 1.3,0.5 1.6,0.5 h 0.3 v 0.6 h -0.2 c -1.2,-0.1 -2.2,-0.1 -2.8,-0.1 -0.6,0 -1.8,0 -2.8,0.1 l -0.5,-0.2 z"
         id="Path3" />
      <path
         style="fill:#8c1515"
         data-name="Shape"
         class="st4"
         d="m 167.8,66.2 c -0.6,0 -1.1,0 -1.6,0.5 -0.9,0.8 -1.4,2.2 -1.4,4.1 0,1.9 0,4.6 2.9,4.6 2.9,0 1.1,-0.2 1.6,-0.5 0.9,-0.8 1.4,-2.2 1.4,-4.1 0,-1.9 -0.2,-4.6 -2.9,-4.6 z m -0.2,10.5 c -3.5,0 -5.5,-2.2 -5.5,-5.8 0,-3.6 1.5,-6.1 5.8,-6.1 4.3,0 5.5,2.1 5.5,5.8 0,2.8 -1.5,6.1 -5.8,6.1 z"
         id="Shape1" />
      <path
         style="fill:#8c1515"
         data-name="Path"
         class="st4"
         d="m 174.4,76.5 v -0.6 h 0.2 c 0.4,0 0.7,-0.2 1,-0.5 0.3,-0.4 0.4,-1.3 0.4,-3.2 V 69 c 0,-0.8 0,-1.6 -0.2,-2.3 -0.2,-0.3 -0.7,-0.4 -1,-0.4 h -0.3 v -0.7 h 0.4 c 0.7,0 1.3,0 2,-0.2 0.4,0 0.8,-0.2 1.2,-0.4 h 0.2 v 1 c 0.7,-0.7 1.6,-1 2.6,-1 1,0 1.4,0.2 1.9,0.6 h 0.2 v 0.5 l -1,1.7 h -0.5 c -0.4,-0.7 -1.1,-1.1 -1.8,-1 -0.4,0 -0.9,0.1 -1.2,0.4 v 5.7 c 0,0.8 0,1.7 0.2,2.5 0.3,0.5 1.3,0.5 1.6,0.5 h 0.2 v 0.6 h -0.2 c -1.2,-0.1 -2.2,-0.1 -2.8,-0.1 -0.6,0 -1.8,0 -2.8,0.1 h -0.4 z"
         id="Path4" />
      <path
         style="fill:#8c1515"
         data-name="Shape"
         class="st4"
         d="m 189.6,66.2 c -2.2,0 -3.3,1.5 -3.3,4.6 0,3.1 0.4,4.2 3.6,4.2 0.6,0 1.2,-0.1 1.8,-0.5 V 67 c -0.6,-0.6 -1.4,-0.8 -2.2,-0.8 z m 2.6,10.4 h -0.3 v -1.1 c -0.9,0.7 -2,1.1 -3.1,1.1 -3.1,0 -5.1,-2.1 -5.1,-5.5 0,-3.4 0.2,-2.1 0.6,-3 1,-2.1 3.1,-3.3 5.4,-3.2 0.7,0 1.5,0 2.2,0.2 v -2.4 c 0,-0.8 0,-1.7 -0.2,-2.5 -0.3,-0.3 -0.6,-0.4 -1,-0.4 h -0.3 v -0.4 h 0.2 l 2.4,-0.3 c 0.4,0 0.8,0 1.1,-0.3 h 0.3 v 13.9 c 0,0.8 0,1.7 0.2,2.5 0.3,0.3 0.6,0.4 1,0.4 h 0.3 v 0.6 h -0.2 c -0.7,0 -1.5,0.1 -2.2,0.2 -0.4,0 -0.7,0 -1.2,0.2 z"
         id="Shape2" />
      <g
         id="_x25_PLACEHOLDER1_x25_">
        <g
           id="Group">
          <g
             data-name="_x25_PLACEHOLDER1_x25_"
             id="_x25_PLACEHOLDER1_x25_1">
            <g
               id="text17"
               style="font-size:14px;font-family:SourceSansPro-Regular, 'Source Sans Pro';isolation:isolate;fill:#2e2d29"
               transform="translate(205.8,62)" />
            <g
               id="text21"
               style="font-size:14px;font-family:SourceSansPro-Regular, 'Source Sans Pro';isolation:isolate;fill:#2e2d29"
               transform="translate(205.8,76.5)"
               aria-label="Journalism Program">
              <path
                 id="path39"
                 style=""
                 d="m 2.968,0.168 c 1.792,0 2.534,-1.288 2.534,-2.87 V -9.184 H 4.326 v 6.37 c 0,1.4 -0.49,1.96 -1.47,1.96 -0.658,0 -1.176,-0.308 -1.582,-1.036 l -0.84,0.588 c 0.532,0.966 1.372,1.47 2.534,1.47 z" />
              <path
                 id="path41"
                 style=""
                 d="m 10.520563,0.168 c 1.666,0 3.149999,-1.302 3.149999,-3.556 0,-2.282 -1.483999,-3.584 -3.149999,-3.584 -1.6660005,0 -3.1500005,1.302 -3.1500005,3.584 0,2.254 1.484,3.556 3.1500005,3.556 z m 0,-0.952 c -1.1620005,0 -1.9600005,-1.05 -1.9600005,-2.604 0,-1.568 0.798,-2.632 1.9600005,-2.632 1.175999,0 1.96,1.064 1.96,2.632 0,1.554 -0.784001,2.604 -1.96,2.604 z" />
              <path
                 id="path43"
                 style=""
                 d="m 17.464125,0.168 c 0.938,0 1.61,-0.49 2.24,-1.232 h 0.042 l 0.098,1.064 h 0.952 v -6.804 h -1.148 v 4.83 c -0.644,0.798 -1.134,1.148 -1.834,1.148 -0.896,0 -1.274,-0.546 -1.274,-1.82 v -4.158 h -1.162 v 4.312 c 0,1.736 0.644,2.66 2.086,2.66 z" />
              <path
                 id="path45"
                 style=""
                 d="m 23.105031,0 h 1.148 v -4.368 c 0.462,-1.148 1.148,-1.568 1.722,-1.568 0.28,0 0.434,0.042 0.658,0.112 l 0.224,-1.008 c -0.224,-0.098 -0.434,-0.14 -0.728,-0.14 -0.77,0 -1.47,0.546 -1.932,1.4 h -0.042 l -0.098,-1.232 h -0.952 z" />
              <path
                 id="path47"
                 style=""
                 d="m 27.972219,0 h 1.148 v -4.928 c 0.686,-0.686 1.162,-1.05 1.862,-1.05 0.896,0 1.288,0.546 1.288,1.82 V 0 h 1.148 v -4.312 c 0,-1.736 -0.644,-2.66 -2.072,-2.66 -0.938,0 -1.638,0.504 -2.282,1.148 h -0.042 l -0.098,-0.98 h -0.952 z" />
              <path
                 id="path49"
                 style=""
                 d="m 37.196469,0.168 c 0.854,0 1.61,-0.448 2.254,-0.98 h 0.042 l 0.098,0.812 h 0.952 v -4.172 c 0,-1.694 -0.7,-2.8 -2.366,-2.8 -1.092,0 -2.044,0.476 -2.674,0.882 l 0.448,0.798 c 0.532,-0.364 1.246,-0.728 2.03,-0.728 1.12,0 1.4,0.84 1.4,1.708 -2.898,0.322 -4.172,1.064 -4.172,2.548 0,1.218 0.854,1.932 1.988,1.932 z m 0.336,-0.924 c -0.672,0 -1.204,-0.322 -1.204,-1.092 0,-0.868 0.784,-1.428 3.052,-1.708 v 1.89 c -0.658,0.588 -1.19,0.91 -1.848,0.91 z" />
              <path
                 id="path51"
                 style=""
                 d="m 43.901156,0.168 c 0.308,0 0.504,-0.042 0.658,-0.112 l -0.154,-0.868 c -0.126,0.028 -0.182,0.028 -0.252,0.028 -0.168,0 -0.322,-0.14 -0.322,-0.504 v -8.68 h -1.148 v 8.596 c 0,0.994 0.35,1.54 1.218,1.54 z" />
              <path
                 id="path53"
                 style=""
                 d="m 46.265188,0 h 1.147999 v -6.804 h -1.147999 z m 0.587999,-8.204 c 0.448,0 0.798,-0.308 0.798,-0.742 0,-0.448 -0.35,-0.742 -0.798,-0.742 -0.448,0 -0.797999,0.294 -0.797999,0.742 0,0.434 0.349999,0.742 0.797999,0.742 z" />
              <path
                 id="path55"
                 style=""
                 d="m 51.4885,0.168 c 1.61,0 2.492,-0.924 2.492,-2.03 0,-1.288 -1.092,-1.694 -2.072,-2.058 -0.77,-0.294 -1.512,-0.532 -1.512,-1.176 0,-0.518 0.392,-0.98 1.246,-0.98 0.602,0 1.092,0.252 1.554,0.602 l 0.546,-0.728 c -0.518,-0.42 -1.26,-0.77 -2.114,-0.77 -1.47,0 -2.338,0.84 -2.338,1.932 0,1.148 1.064,1.61 2.03,1.96 0.742,0.28 1.554,0.588 1.554,1.288 0,0.588 -0.448,1.064 -1.344,1.064 -0.812,0 -1.414,-0.336 -2.002,-0.812 l -0.574,0.77 c 0.644,0.532 1.568,0.938 2.534,0.938 z" />
              <path
                 id="path57"
                 style=""
                 d="m 55.589406,0 h 1.148 v -4.928 c 0.63,-0.7 1.204,-1.05 1.708,-1.05 0.868,0 1.274,0.546 1.274,1.82 V 0 h 1.148 v -4.928 c 0.63,-0.7 1.176,-1.05 1.708,-1.05 0.854,0 1.26,0.546 1.26,1.82 V 0 h 1.148 v -4.312 c 0,-1.736 -0.672,-2.66 -2.072,-2.66 -0.826,0 -1.526,0.532 -2.24,1.302 -0.28,-0.812 -0.84,-1.302 -1.876,-1.302 -0.812,0 -1.526,0.504 -2.114,1.148 h -0.042 l -0.098,-0.98 h -0.952 z" />
              <path
                 id="path59"
                 style=""
                 d="m 70.084219,0 h 1.162 v -3.64 h 1.512 c 2.016,0 3.388,-0.91 3.388,-2.842 0,-2.016 -1.386,-2.702 -3.444,-2.702 h -2.618 z m 1.162,-4.592 v -3.654 h 1.316 c 1.61,0 2.422,0.434 2.422,1.764 0,1.302 -0.77,1.89 -2.366,1.89 z" />
              <path
                 id="path61"
                 style=""
                 d="m 77.901906,0 h 1.148 v -4.368 c 0.462,-1.148 1.148,-1.568 1.722,-1.568 0.28,0 0.434,0.042 0.658,0.112 l 0.224,-1.008 c -0.224,-0.098 -0.434,-0.14 -0.728,-0.14 -0.77,0 -1.47,0.546 -1.932,1.4 h -0.042 l -0.098,-1.232 h -0.952 z" />
              <path
                 id="path63"
                 style=""
                 d="m 85.278375,0.168 c 1.666,0 3.15,-1.302 3.15,-3.556 0,-2.282 -1.484,-3.584 -3.15,-3.584 -1.666,0 -3.15,1.302 -3.15,3.584 0,2.254 1.484,3.556 3.15,3.556 z m 0,-0.952 c -1.162,0 -1.96,-1.05 -1.96,-2.604 0,-1.568 0.798,-2.632 1.96,-2.632 1.176,0 1.96,1.064 1.96,2.632 0,1.554 -0.784,2.604 -1.96,2.604 z" />
              <path
                 id="path65"
                 style=""
                 d="m 92.529938,3.136 c 2.113999,0 3.444,-1.092 3.444,-2.352 0,-1.134 -0.798,-1.624 -2.380001,-1.624 h -1.315999 c -0.924001,0 -1.204001,-0.308 -1.204001,-0.742 0,-0.378 0.196,-0.602 0.434,-0.812 0.308001,0.154 0.686001,0.238 1.022001,0.238 1.385999,0 2.492,-0.91 2.492,-2.366 0,-0.574 -0.238,-1.092 -0.56,-1.4 h 1.399999 v -0.882 h -2.366 c -0.252,-0.098 -0.587999,-0.168 -0.965999,-0.168 -1.386001,0 -2.562,0.938 -2.562,2.422 0,0.812 0.434,1.47 0.881999,1.834 v 0.056 c -0.349999,0.238 -0.741999,0.686 -0.741999,1.26 0,0.532 0.265999,0.896 0.601999,1.106 v 0.056 c -0.616,0.42 -0.994,0.966 -0.994,1.54 0,1.176 1.148001,1.834 2.814001,1.834 z m 0,-6.062 c -0.784001,0 -1.442001,-0.63 -1.442001,-1.624 0,-0.994 0.644,-1.582 1.442001,-1.582 0.798,0 1.441999,0.588 1.441999,1.582 0,0.994 -0.658,1.624 -1.441999,1.624 z m 0.167999,5.264 c -1.232,0 -1.973999,-0.462 -1.973999,-1.19 0,-0.392 0.209999,-0.798 0.699999,-1.148 0.294001,0.084 0.616,0.112 0.882,0.112 h 1.176 c 0.882001,0 1.372,0.21 1.372,0.84 0,0.714 -0.853999,1.386 -2.156,1.386 z" />
              <path
                 id="path67"
                 style=""
                 d="m 97.288625,0 h 1.148 v -4.368 c 0.462,-1.148 1.148,-1.568 1.722005,-1.568 0.28,0 0.43399,0.042 0.658,0.112 l 0.224,-1.008 c -0.224,-0.098 -0.43401,-0.14 -0.72801,-0.14 -0.769995,0 -1.469995,0.546 -1.931995,1.4 h -0.042 l -0.098,-1.232 h -0.952 z" />
              <path
                 id="path69"
                 style=""
                 d="m 103.39569,0.168 c 0.854,0 1.61,-0.448 2.254,-0.98 h 0.042 l 0.098,0.812 h 0.952 v -4.172 c 0,-1.694 -0.7,-2.8 -2.366,-2.8 -1.092,0 -2.044,0.476 -2.674,0.882 l 0.448,0.798 c 0.532,-0.364 1.246,-0.728 2.03,-0.728 1.12,0 1.4,0.84 1.4,1.708 -2.898,0.322 -4.172,1.064 -4.172,2.548 0,1.218 0.854,1.932 1.988,1.932 z m 0.336,-0.924 c -0.672,0 -1.204,-0.322 -1.204,-1.092 0,-0.868 0.784,-1.428 3.052,-1.708 v 1.89 c -0.658,0.588 -1.19,0.91 -1.848,0.91 z" />
              <path
                 id="path71"
                 style=""
                 d="m 108.88237,0 h 1.14801 v -4.928 c 0.63,-0.7 1.204,-1.05 1.708,-1.05 0.868,0 1.274,0.546 1.274,1.82 V 0 h 1.148 v -4.928 c 0.62999,-0.7 1.176,-1.05 1.708,-1.05 0.854,0 1.26,0.546 1.26,1.82 V 0 h 1.148 v -4.312 c 0,-1.736 -0.672,-2.66 -2.072,-2.66 -0.826,0 -1.526,0.532 -2.24,1.302 -0.28,-0.812 -0.84,-1.302 -1.876,-1.302 -0.812,0 -1.526,0.504 -2.11401,1.148 h -0.042 l -0.098,-0.98 h -0.952 z" />
            </g>
            <g
               id="text25"
               style="font-size:14px;font-family:SourceSansPro-Regular, 'Source Sans Pro';fill:#2e2d29"
               transform="translate(322.6,76)" />
          </g>
        </g>
      </g>
    </g>
    <path
       style="fill:none;stroke:#2e2d29;stroke-width:0.69999999px"
       data-name="Path"
       d="m 200.7,77.3 v -18"
       id="Path5" />
  </g>
</svg>
