<svg id="svg" version="1.1" xmlns="http://www.w3.org/2000/svg" xmlns:xlink="http://www.w3.org/1999/xlink" width="400" height="400" viewBox="0, 0, 400,400"><g id="svgg"><path id="path0" d="M306.268 234.886 C 306.258 235.060,307.202 237.609,308.366 240.551 C 311.946 249.598,314.543 259.870,315.595 269.141 C 316.252 274.934,316.367 275.455,316.186 271.824 C 315.854 265.147,313.716 254.849,310.926 246.484 C 309.476 242.139,306.305 234.243,306.268 234.886 M92.011 238.556 C 90.435 242.314,87.749 250.175,87.301 252.344 C 86.794 254.793,87.366 253.408,88.591 249.219 C 89.250 246.963,90.670 242.924,91.746 240.243 C 92.821 237.562,93.645 235.312,93.577 235.244 C 93.509 235.175,92.804 236.666,92.011 238.556 M86.004 257.297 C 84.970 262.152,84.339 266.102,84.499 266.712 C 84.616 267.157,84.693 267.054,84.729 266.406 C 84.759 265.869,85.216 263.244,85.743 260.572 C 86.271 257.900,86.636 255.646,86.554 255.564 C 86.472 255.482,86.224 256.262,86.004 257.297 M83.779 270.888 C 83.625 272.739,83.583 274.338,83.687 274.442 C 83.790 274.546,83.998 273.113,84.149 271.258 C 84.299 269.404,84.341 267.804,84.241 267.704 C 84.141 267.604,83.933 269.037,83.779 270.888 M83.368 283.203 C 83.368 287.607,83.425 289.409,83.494 287.207 C 83.564 285.005,83.564 281.401,83.494 279.199 C 83.425 276.997,83.368 278.799,83.368 283.203 M316.571 283.203 C 316.571 287.607,316.628 289.409,316.698 287.207 C 316.767 285.005,316.767 281.401,316.698 279.199 C 316.628 276.997,316.571 278.799,316.571 283.203 M83.711 293.750 C 83.711 294.932,83.784 295.415,83.874 294.824 C 83.963 294.233,83.963 293.267,83.874 292.676 C 83.784 292.085,83.711 292.568,83.711 293.750 M316.133 293.750 C 316.133 294.932,316.206 295.415,316.295 294.824 C 316.385 294.233,316.385 293.267,316.295 292.676 C 316.206 292.085,316.133 292.568,316.133 293.750 M84.019 297.129 C 83.967 298.961,85.371 306.770,86.691 312.001 C 94.532 343.057,114.610 369.288,142.739 385.226 C 147.174 387.739,156.908 392.240,158.984 392.739 C 160.296 393.053,159.712 392.776,153.369 390.068 C 117.241 374.648,90.746 340.124,84.779 300.690 C 84.380 298.055,84.038 296.452,84.019 297.129 M315.469 298.672 C 315.322 300.101,315.282 301.350,315.379 301.447 C 315.477 301.544,315.681 300.460,315.833 299.036 C 315.986 297.613,316.026 296.364,315.923 296.261 C 315.819 296.158,315.615 297.243,315.469 298.672 M314.498 304.903 C 314.412 306.439,311.747 316.628,310.417 320.508 C 296.804 360.229,265.369 388.059,223.446 397.503 C 221.185 398.013,220.215 398.328,221.289 398.205 C 251.294 394.757,285.764 369.858,302.522 339.526 C 308.068 329.488,315.586 308.063,314.719 304.767 C 314.581 304.242,314.534 304.271,314.498 304.903 M160.156 393.102 C 160.156 393.333,164.844 394.932,165.408 394.893 C 165.635 394.878,164.941 394.552,163.867 394.169 C 160.901 393.113,160.156 392.899,160.156 393.102 M166.797 395.364 C 168.330 395.980,176.699 397.968,178.782 398.210 C 179.817 398.331,178.803 398.010,176.528 397.498 C 174.254 396.986,171.044 396.197,169.395 395.744 C 166.203 394.869,165.199 394.722,166.797 395.364 M182.227 398.851 C 183.086 399.028,184.316 399.162,184.961 399.147 C 185.840 399.128,185.693 399.043,184.375 398.808 C 182.018 398.389,180.170 398.425,182.227 398.851 M217.285 398.707 C 217.661 398.805,218.276 398.805,218.652 398.707 C 219.028 398.609,218.721 398.528,217.969 398.528 C 217.217 398.528,216.909 398.609,217.285 398.707 M214.551 399.097 C 214.927 399.196,215.542 399.196,215.918 399.097 C 216.294 398.999,215.986 398.919,215.234 398.919 C 214.482 398.919,214.175 398.999,214.551 399.097 M187.212 399.499 C 187.806 399.589,188.685 399.586,189.166 399.494 C 189.646 399.401,189.160 399.328,188.086 399.330 C 187.012 399.333,186.619 399.409,187.212 399.499 M210.840 399.494 C 211.323 399.588,212.114 399.588,212.598 399.494 C 213.081 399.401,212.686 399.325,211.719 399.325 C 210.752 399.325,210.356 399.401,210.840 399.494 M192.090 399.895 C 193.003 399.978,194.497 399.978,195.410 399.895 C 196.323 399.813,195.576 399.746,193.750 399.746 C 191.924 399.746,191.177 399.813,192.090 399.895 M204.590 399.895 C 205.503 399.978,206.997 399.978,207.910 399.895 C 208.823 399.813,208.076 399.746,206.250 399.746 C 204.424 399.746,203.677 399.813,204.590 399.895 " stroke="none" fill="#a4c4fc" fill-rule="evenodd"></path><path id="path1" d="M100.251 79.035 C 45.353 122.470,0.426 158.128,0.413 158.276 C 0.401 158.423,21.265 175.529,46.777 196.289 C 72.290 217.049,93.315 234.249,93.500 234.511 C 93.710 234.810,93.025 237.033,91.661 240.475 C 55.823 330.925,140.928 422.928,234.303 394.678 C 298.746 375.182,333.234 303.366,308.345 240.495 C 307.169 237.524,306.260 234.954,306.326 234.784 C 306.392 234.615,327.451 217.382,353.125 196.490 C 378.799 175.597,399.847 158.467,399.898 158.422 C 399.950 158.378,359.344 126.163,309.664 86.833 C 259.984 47.503,215.000 11.890,209.700 7.693 L 200.065 0.062 100.251 79.035 " stroke="none" fill="#04245c" fill-rule="evenodd"></path><path id="path2" d="M99.805 78.969 C 45.020 122.367,0.160 158.080,0.117 158.331 C 0.074 158.583,20.699 175.576,45.949 196.094 C 71.200 216.611,92.302 233.801,92.843 234.294 C 93.384 234.787,93.765 235.012,93.690 234.794 C 93.616 234.577,72.593 217.332,46.973 196.472 C 21.353 175.612,0.401 158.424,0.413 158.276 C 0.426 158.129,41.652 125.400,92.027 85.547 C 207.511 -5.816,200.190 -0.006,199.771 0.032 C 199.575 0.050,154.590 35.572,99.805 78.969 " stroke="none" fill="#4484f4" fill-rule="evenodd"></path><path id="path3" d="M204.297 3.255 C 204.297 3.362,205.000 4.007,205.859 4.688 C 206.719 5.368,207.422 5.837,207.422 5.730 C 207.422 5.622,206.719 4.978,205.859 4.297 C 205.000 3.616,204.297 3.147,204.297 3.255 M213.672 10.677 C 213.672 10.784,214.375 11.429,215.234 12.109 C 216.094 12.790,216.797 13.259,216.797 13.152 C 216.797 13.044,216.094 12.399,215.234 11.719 C 214.375 11.038,213.672 10.569,213.672 10.677 M223.047 18.098 C 223.047 18.206,223.750 18.851,224.609 19.531 C 225.469 20.212,226.172 20.681,226.172 20.573 C 226.172 20.466,225.469 19.821,224.609 19.141 C 223.750 18.460,223.047 17.991,223.047 18.098 M232.422 25.520 C 232.422 25.628,233.125 26.272,233.984 26.953 C 234.844 27.634,235.547 28.103,235.547 27.995 C 235.547 27.888,234.844 27.243,233.984 26.563 C 233.125 25.882,232.422 25.413,232.422 25.520 M241.797 32.942 C 241.797 33.050,242.500 33.694,243.359 34.375 C 244.219 35.056,244.922 35.525,244.922 35.417 C 244.922 35.310,244.219 34.665,243.359 33.984 C 242.500 33.304,241.797 32.835,241.797 32.942 M251.172 40.364 C 251.172 40.471,251.875 41.116,252.734 41.797 C 253.594 42.478,254.297 42.947,254.297 42.839 C 254.297 42.732,253.594 42.087,252.734 41.406 C 251.875 40.726,251.172 40.257,251.172 40.364 M260.547 47.786 C 260.547 47.893,261.250 48.538,262.109 49.219 C 262.969 49.899,263.672 50.368,263.672 50.261 C 263.672 50.154,262.969 49.509,262.109 48.828 C 261.250 48.147,260.547 47.678,260.547 47.786 M269.922 55.208 C 269.922 55.315,270.625 55.960,271.484 56.641 C 272.344 57.321,273.047 57.790,273.047 57.683 C 273.047 57.575,272.344 56.931,271.484 56.250 C 270.625 55.569,269.922 55.100,269.922 55.208 M279.297 62.630 C 279.297 62.737,280.000 63.382,280.859 64.063 C 281.719 64.743,282.422 65.212,282.422 65.105 C 282.422 64.997,281.719 64.353,280.859 63.672 C 280.000 62.991,279.297 62.522,279.297 62.630 M288.672 70.052 C 288.672 70.159,289.375 70.804,290.234 71.484 C 291.094 72.165,291.797 72.634,291.797 72.527 C 291.797 72.419,291.094 71.774,290.234 71.094 C 289.375 70.413,288.672 69.944,288.672 70.052 M298.047 77.473 C 298.047 77.581,298.750 78.226,299.609 78.906 C 300.469 79.587,301.172 80.056,301.172 79.948 C 301.172 79.841,300.469 79.196,299.609 78.516 C 298.750 77.835,298.047 77.366,298.047 77.473 M307.422 84.895 C 307.422 85.003,308.125 85.647,308.984 86.328 C 309.844 87.009,310.547 87.478,310.547 87.370 C 310.547 87.263,309.844 86.618,308.984 85.938 C 308.125 85.257,307.422 84.788,307.422 84.895 M316.797 92.317 C 316.797 92.425,317.500 93.069,318.359 93.750 C 319.219 94.431,319.922 94.900,319.922 94.792 C 319.922 94.685,319.219 94.040,318.359 93.359 C 317.500 92.679,316.797 92.210,316.797 92.317 M326.172 99.739 C 326.172 99.846,326.875 100.491,327.734 101.172 C 328.594 101.853,329.297 102.322,329.297 102.214 C 329.297 102.107,328.594 101.462,327.734 100.781 C 326.875 100.101,326.172 99.632,326.172 99.739 M335.547 107.161 C 335.547 107.268,336.250 107.913,337.109 108.594 C 337.969 109.274,338.672 109.743,338.672 109.636 C 338.672 109.529,337.969 108.884,337.109 108.203 C 336.250 107.522,335.547 107.053,335.547 107.161 M344.922 114.583 C 344.922 114.690,345.625 115.335,346.484 116.016 C 347.344 116.696,348.047 117.165,348.047 117.058 C 348.047 116.950,347.344 116.306,346.484 115.625 C 345.625 114.944,344.922 114.475,344.922 114.583 M354.297 122.005 C 354.297 122.112,355.000 122.757,355.859 123.438 C 356.719 124.118,357.422 124.587,357.422 124.480 C 357.422 124.372,356.719 123.728,355.859 123.047 C 355.000 122.366,354.297 121.897,354.297 122.005 M363.672 129.427 C 363.672 129.534,364.375 130.179,365.234 130.859 C 366.094 131.540,366.797 132.009,366.797 131.902 C 366.797 131.794,366.094 131.149,365.234 130.469 C 364.375 129.788,363.672 129.319,363.672 129.427 M373.047 136.848 C 373.047 136.956,373.750 137.601,374.609 138.281 C 375.469 138.962,376.172 139.431,376.172 139.323 C 376.172 139.216,375.469 138.571,374.609 137.891 C 373.750 137.210,373.047 136.741,373.047 136.848 M382.422 144.270 C 382.422 144.378,383.125 145.022,383.984 145.703 C 384.844 146.384,385.547 146.853,385.547 146.745 C 385.547 146.638,384.844 145.993,383.984 145.313 C 383.125 144.632,382.422 144.163,382.422 144.270 M391.797 151.692 C 391.797 151.800,392.500 152.444,393.359 153.125 C 394.219 153.806,394.922 154.275,394.922 154.167 C 394.922 154.060,394.219 153.415,393.359 152.734 C 392.500 152.054,391.797 151.585,391.797 151.692 M334.180 211.962 L 332.227 213.751 334.277 212.113 C 336.053 210.694,336.616 210.133,336.230 210.164 C 336.177 210.169,335.254 210.978,334.180 211.962 M307.422 233.652 C 306.670 234.312,306.408 234.673,306.840 234.454 C 307.554 234.093,309.323 232.400,308.947 232.438 C 308.860 232.446,308.174 232.993,307.422 233.652 " stroke="none" fill="#346cc4" fill-rule="evenodd"></path><path id="path4" d="" stroke="none" fill="#80c8ac" fill-rule="evenodd"></path></g></svg>